<?xml version="1.0" encoding="UTF-8"?>
<svg width="500px" height="500px" viewBox="0 0 500 500" version="1.1" xmlns="http://www.w3.org/2000/svg" xmlns:xlink="http://www.w3.org/1999/xlink">
    <!-- Generator: Sketch 48.2 (47327) - http://www.bohemiancoding.com/sketch -->
    <title>Artboard</title>
    <desc>Created with Sketch.</desc>
    <defs></defs>
    <g id="Page-1" stroke="none" stroke-width="1" fill="none" fill-rule="evenodd">
        <g id="Artboard" fill="#000000" fill-rule="nonzero">
            <g id="g18" transform="translate(50.000000, 51.000000)">
                <g id="g48" transform="translate(141.604317, 3.159413)">
                    <path d="M239.832279,249.895172 C237.078401,249.345067 234.877982,246.041084 235.978191,243.288883 C253.046535,179.974838 234.877982,112.254924 188.630603,66.0075455 C141.281338,19.2100624 71.9111093,1.04150941 7.49517801,19.7601672 C4.74297682,20.8603768 1.43899367,18.6599576 0.887211718,15.9060793 C-0.212997898,13.1538781 1.99077563,9.84989493 4.74297682,9.29979012 C22.9115298,4.34549255 41.0800828,1.59161422 59.2486358,1.59161422 C109.89853,1.59161422 159.999996,21.4121588 196.888884,58.3010468 C245.888463,107.300626 265.158903,178.872952 246.99035,246.041084 C245.888463,249.345067 242.586157,250.997059 239.832279,249.895172" id="path50"></path>
                </g>
                <g id="g52" transform="translate(5.806082, 38.861047)">
                    <path d="M82.1802914,1.67714881 C83.2821782,1.127044 84.3823878,0.57526204 85.4842746,0.57526204 C87.1362662,0.57526204 88.7865806,1.127044 89.8901445,2.77735842 C91.5404589,5.53123676 90.9903541,8.8352199 88.7865806,10.4855343 C80.529977,16.5417187 72.2716963,23.149685 65.1136252,30.3060789 C-6.4603772,101.878404 -6.4603772,218.047793 65.1136252,289.621796 C136.68595,361.194121 252.85534,361.194121 324.427665,289.621796 C331.585736,282.463725 338.743807,274.205444 344.249887,265.947163 C345.900201,263.745067 349.204184,262.64318 351.956385,264.845276 C354.708587,266.497268 355.260368,269.801251 353.058272,272.553452 C347.000411,281.361838 339.844017,290.171901 332.135841,297.878399 C256.157646,373.30649 132.831863,373.30649 56.8553445,297.878399 C-18.5710687,221.901881 -18.5710687,98.574421 56.8553445,22.5995801 C64.5635204,14.8897271 73.3719059,7.73165599 82.1802914,1.67714881" id="path54"></path>
                </g>
                <g id="g56" transform="translate(311.938233, 203.609052)">
                    <path d="M8.38574403,174.423476 C37.0146741,184.883853 57.9371055,185.433958 67.8473778,175.525362 C78.8595368,164.513203 77.7559729,140.840248 63.9932898,108.907335 C51.8809211,79.7266227 30.408385,45.0415083 2.33123684,9.25450711 C0.677568117,7.05241073 0.677568117,3.19832277 3.43144646,1.5463312 C4.53165607,0.99622639 5.63354284,0.446121582 6.7354296,0.446121582 C8.38574403,0.446121582 10.0377356,0.99622639 11.1396224,2.64821796 C39.7685525,39.5354288 61.7911934,74.7723252 74.4553441,105.053247 C89.8700187,141.940458 89.8700187,168.917396 75.5555537,183.231861 C62.3412982,196.996221 37.5647789,196.996221 3.98155126,184.883853 C1.22767293,183.783643 -0.422641499,180.47966 0.677568117,177.727459 C2.33123684,174.973581 5.63354284,173.321589 8.38574403,174.423476" id="path58"></path>
                </g>
                <g id="g60" transform="translate(0.247340, 0.175262)">
                    <path d="M194.549261,83.8574403 C192.89727,86.0578595 189.043182,86.6096414 186.841085,84.9576499 C150.503979,56.3287198 115.818865,34.8561836 86.638153,22.7454921 C54.7052397,9.53123666 31.0322843,8.42934989 20.0201253,18.8914041 C10.109853,28.8016764 10.109853,50.2725354 21.1220121,78.3513607 C22.2222217,81.1035619 20.5719072,84.4075451 17.8180289,85.5077547 C15.0658277,86.6096414 11.7635217,84.9576499 10.6599578,82.2054487 C-2.00083852,49.1706487 -1.45073372,24.3958065 12.3136265,10.6331234 C19.4700205,3.47505232 29.3802928,0.172746327 42.0427662,0.172746327 C55.2570217,0.172746327 71.7735831,4.02515713 90.4922409,11.733333 C120.77484,24.3958065 156.560164,46.4184475 193.449052,75.5974824 C196.199576,78.3513607 196.749681,81.6553439 194.549261,83.8574403" id="path62"></path>
                </g>
                <g id="g64" transform="translate(184.790899, 68.224233)">
                    <path d="M78.8259938,62.0545058 C75.5220107,58.2004178 73.3199143,53.2461203 73.8700191,48.2918227 L74.9719059,18.5593287 L74.9719059,18.0092239 L71.1178179,13.6050311 C70.566036,13.0549263 70.0159312,13.0549263 70.0159312,13.0549263 L53.4993697,29.0213829 L65.0616336,44.9878395 C69.4658264,51.0440239 68.9157215,59.8540866 63.961424,65.9085937 C58.4553445,71.4146733 49.6469589,72.5148829 43.5890974,68.1106901 L27.0742132,57.1002082 L12.206289,74.1685516 C12.206289,74.7186564 12.206289,75.2687612 12.758071,75.2687612 L17.7140457,78.5727444 L18.2641505,78.5727444 L47.9932902,75.818866 C52.9492649,75.2687612 58.4553445,76.9207528 62.3077553,80.2230588 L97.5446516,108.851989 C99.746748,110.505658 101.948844,111.605867 104.702723,112.706077 L116.813414,116.01006 C117.365196,116.01006 117.915301,116.01006 118.467083,115.459955 C119.017188,114.90985 119.017188,114.359746 119.017188,113.807964 L115.1631,102.2457 C114.061213,99.4934986 112.961003,97.2914022 110.758907,95.0893058 L78.8259938,62.0545058 Z M38.6347999,27.3693913 C36.9828083,27.9194962 34.2306071,30.6733745 32.0285107,33.4272528 L29.8247372,35.6276721 C27.0742132,38.3815504 24.3203348,41.1337516 24.3203348,42.2356384 L49.095177,58.2004178 C50.1970637,58.7521998 50.7471685,59.3023046 51.8473782,59.3023046 C53.4993697,59.3023046 54.6012565,58.7521998 55.7014661,57.650313 C57.3534577,55.9999986 57.3534577,53.2461203 56.2532481,51.0440239 L38.6347999,27.3693913 Z M117.365196,87.9329118 C120.117397,91.2335407 122.321171,94.5375238 123.971485,98.3916118 L128.375678,109.955553 C130.02767,114.359746 128.92746,119.314043 125.623477,122.616349 C122.321171,125.920332 117.365196,127.570647 112.961003,125.920332 L100.848635,122.616349 C96.9945468,121.51614 93.1404589,119.314043 89.8364757,116.560165 L54.6012565,87.9329118 C52.9492649,86.2792431 50.7471685,85.7291383 48.543395,86.2792431 L18.8142553,89.0331215 C16.0620541,89.5832263 12.758071,88.4830167 10.5559746,86.8293479 L5.60167701,83.5270419 C0.0955974819,79.672954 -1.00628928,72.5148829 2.29769386,67.0104805 L17.1622637,49.9421371 C14.4100625,47.1899359 12.758071,43.335848 13.3098529,39.48176 C14.4100625,35.0775673 17.7140457,31.2234793 21.5664565,27.3693913 L23.77023,25.167295 C27.624318,20.7631022 31.4784059,17.4591191 35.8825987,15.8088046 C36.9828083,15.8088046 37.5329131,15.2586998 38.6347999,15.2586998 C41.3870011,15.2586998 44.1392023,16.3589094 46.3429758,18.5610058 L62.3077553,3.14465401 L62.8578601,2.5945492 C65.0616336,0.942557628 67.8155119,0.390775672 70.0159312,0.390775672 C73.3199143,0.390775672 77.1740023,2.04444439 79.3760986,4.79664558 L83.2301866,9.20083834 C84.880501,11.4046119 85.9840649,14.1551359 85.9840649,17.4591191 L84.3303962,48.2918227 C84.3303962,50.4922419 84.880501,52.6960155 86.5341697,54.3463299 L117.365196,87.9329118 Z" id="path66"></path>
                </g>
            </g>
        </g>
    </g>
</svg>