<?xml version="1.0" encoding="UTF-8"?>
<svg width="240px" height="56px" viewBox="0 0 240 56" version="1.1" xmlns="http://www.w3.org/2000/svg" xmlns:xlink="http://www.w3.org/1999/xlink">
    <!-- Generator: Sketch 48.2 (47327) - http://www.bohemiancoding.com/sketch -->
    <title>Artboard</title>
    <desc>Created with Sketch.</desc>
    <defs></defs>
    <g id="Page-1" stroke="none" stroke-width="1" fill="none" fill-rule="evenodd">
        <g id="Artboard" fill="#000000" fill-rule="nonzero">
            <g id="g18" transform="translate(119.993243, 28.250000) scale(1, -1) translate(-119.993243, -28.250000) translate(10.000000, 10.000000)">
                <g id="g24" transform="translate(20.716216, 13.810811)">
                    <path d="M1.97297297,2.19219219 C2.64138803,1.44074003 3.46200386,1.06509224 4.43496139,1.06509224 C5.40791892,1.06509224 6.22853475,1.44074003 6.89694981,2.19219219 C7.56536486,2.94380094 7.89950193,3.87313385 7.89950193,4.98050408 C7.89950193,6.0878743 7.56536486,7.01736379 6.89694981,7.76881596 C6.22853475,8.52026813 5.40791892,8.89591592 4.43496139,8.89591592 C3.46200386,8.89591592 2.64138803,8.52026813 1.97297297,7.76881596 C1.30469884,7.01736379 0.970420849,6.0878743 0.970420849,4.98050408 C0.970420849,3.87313385 1.30469884,2.94380094 1.97297297,2.19219219 M7.5316834,1.53970184 C6.68147297,0.59486701 5.64918533,0.122449592 4.43496139,0.122449592 C3.22073745,0.122449592 2.18859073,0.59486701 1.33823938,1.53970184 C0.487888031,2.48453668 0.0627123552,3.63136637 0.0627123552,4.98050408 C0.0627123552,6.32964178 0.487888031,7.47662806 1.33823938,8.42130631 C2.18859073,9.36614114 3.22073745,9.83855856 4.43496139,9.83855856 C5.64918533,9.83855856 6.68147297,9.36614114 7.5316834,8.42130631 C8.38203475,7.47662806 8.80721042,6.32964178 8.80721042,4.98050408 C8.80721042,3.63136637 8.38203475,2.48453668 7.5316834,1.53970184" id="path26"></path>
                </g>
                <g id="g28" transform="translate(59.189189, 13.810811)">
                    <polygon id="path30" points="6.90540541 9.86486486 6.90540541 8.8845237 3.99193814 8.8845237 3.99193814 0.102529907 3.0036979 0.102529907 3.0036979 8.8845237 0.0903840841 8.8845237 0.0903840841 9.86486486"></polygon>
                </g>
                <g id="g32" transform="translate(79.905405, 13.810811)">
                    <polygon id="path34" points="0 9.86486486 0.952505175 9.86486486 0.952505175 5.54195171 5.88810696 5.54195171 5.88810696 9.86486486 6.84061213 9.86486486 6.84061213 0.102529907 5.88810696 0.102529907 5.88810696 4.56161054 0.952505175 4.56161054 0.952505175 0.102529907 0 0.102529907"></polygon>
                </g>
                <g id="g36" transform="translate(103.581081, 13.810811)">
                    <polygon id="path38" points="6.90540541 1.11377507 6.90540541 0.155928509 0.118034255 0.155928509 0.118034255 9.76096556 6.76328253 9.76096556 6.76328253 8.79643636 1.15914456 8.79643636 1.15914456 5.64174804 5.65472407 5.64174804 5.65472407 4.68374237 1.15914456 4.68374237 1.15914456 1.11377507"></polygon>
                </g>
                <g id="g40" transform="translate(141.067568, 13.810811)">
                    <polygon id="path42" points="4.43918919 2.86399303 0.985213601 7.93437446 0.985213601 0.117741935 0.0567070619 0.117741935 0.0567070619 9.72261988 0.858481909 9.72261988 4.43918919 4.50490192 8.02003967 9.72261988 8.82167132 9.72261988 8.82167132 0.117741935 7.89946556 0.117741935 7.89946556 7.93437446"></polygon>
                </g>
                <g id="g44" transform="translate(213.081081, 13.810811)">
                    <polygon id="path46" points="6.76447876 9.86486486 6.76447876 0.102529907 6.00699243 0.102529907 0.995190116 7.97905848 0.995190116 0.102529907 0.118107799 0.102529907 0.118107799 9.86486486 0.875594131 9.86486486 5.89307861 1.98154409 5.89307861 9.86486486"></polygon>
                </g>
                <g id="g48" transform="translate(176.581081, 0.000000)">
                    <path d="M22.2738265,23.5178378 C22.0180669,23.466067 21.8137084,23.1551265 21.9158876,22.8961146 C23.5010676,16.9375784 21.8137084,10.5644022 17.5185982,6.21202378 C13.1211529,1.80787459 6.67856543,0.0980172973 0.696096017,1.85964541 C0.440492176,1.96318703 0.133642959,1.75610378 0.0823975818,1.49693405 C-0.0197816501,1.23792216 0.184888336,0.926981622 0.440492176,0.875210811 C2.12785135,0.408957838 3.81521053,0.149788108 5.5025697,0.149788108 C10.2065526,0.149788108 14.8596017,2.01511568 18.2855654,5.48675892 C22.8362795,10.0981492 24.6259737,16.8338789 22.9386145,23.1551265 C22.8362795,23.466067 22.5295861,23.6215373 22.2738265,23.5178378" id="path50"></path>
                </g>
                <g id="g52" transform="translate(164.743243, 3.945946)">
                    <path d="M7.52428608,0.153556859 C7.62517293,0.103190209 7.72590623,0.0526700025 7.82679309,0.0526700025 C7.9780466,0.0526700025 8.12914655,0.103190209 8.23018696,0.254290158 C8.38128691,0.50643052 8.33092026,0.808937532 8.12914655,0.960037481 C7.37318613,1.5145313 6.61707216,2.11954532 5.96169148,2.77477244 C-0.59150102,9.32781138 -0.59150102,19.9640808 5.96169148,26.5172733 C12.5147304,33.0703122 23.1509998,33.0703122 29.7040388,26.5172733 C30.3594194,25.8618926 31.0148001,25.1057786 31.5189273,24.3496646 C31.6700272,24.1480445 31.9725342,24.0471576 32.224521,24.2487778 C32.4765078,24.4000313 32.527028,24.7025383 32.3254079,24.9545251 C31.7707605,25.7610057 31.1155334,26.5676399 30.4097861,27.2732337 C23.4533533,34.1792998 12.1618568,34.1792998 5.20557751,27.2732337 C-1.7003351,20.3169544 -1.7003351,9.02530437 5.20557751,2.06917867 C5.91132483,1.36327779 6.71780546,0.707897119 7.52428608,0.153556859" id="path54"></path>
                </g>
                <g id="g56" transform="translate(193.351351, 18.743243)">
                    <path d="M0.663981289,15.9198509 C2.93081341,16.8745827 4.58744673,16.9247915 5.37213981,16.0204215 C6.24408004,15.0153278 6.1567001,12.8546673 5.06697401,9.94010997 C4.10791944,7.27674953 2.40772895,4.11099534 0.184586798,0.84467055 C0.0536496881,0.643682432 0.0536496881,0.291914958 0.271701143,0.141135601 C0.358815489,0.0909268406 0.44606263,0.0407180801 0.533309771,0.0407180801 C0.663981289,0.0407180801 0.794785603,0.0909268406 0.882032744,0.241706198 C3.14886486,3.60844851 4.89261253,6.82456454 5.89535707,9.5883425 C7.11588747,12.9550848 7.11588747,15.4173041 5.98247141,16.7238034 C4.9361697,17.9800939 2.97437058,17.9800939 0.315258316,16.8745827 C0.0972068607,16.7741652 -0.033464657,16.4726065 0.0536496881,16.2214096 C0.184586798,15.9700596 0.44606263,15.8192803 0.663981289,15.9198509" id="path58"></path>
                </g>
                <g id="g60" transform="translate(163.756757, 0.000000)">
                    <path d="M18.5830446,7.58835759 C18.4252489,7.78747609 18.0571124,7.83740748 17.8467715,7.68791684 C14.3759074,5.09725156 11.0628389,3.15417672 8.27554239,2.05826611 C5.2253599,0.862492723 2.96415581,0.762781705 1.91229141,1.7095052 C0.965677524,2.6062973 0.965677524,4.54922037 2.01754193,7.09010603 C2.12263225,7.33915593 1.96499677,7.63813721 1.70195057,7.73769647 C1.43906456,7.83740748 1.1236334,7.68791684 1.01822268,7.43886694 C-0.191117002,4.44950936 -0.138571841,2.20760499 1.17617856,0.962203742 C1.85974625,0.314461538 2.80636013,0.0156320166 4.01586001,0.0156320166 C5.27806526,0.0156320166 6.85570166,0.364241164 8.64367891,1.06176299 C11.5362259,2.20760499 14.9543847,4.20045946 18.4779543,6.84090437 C18.7406801,7.09010603 18.7932252,7.38908732 18.5830446,7.58835759" id="path62"></path>
                </g>
                <g id="g64" transform="translate(181.513514, 5.918919)">
                    <path d="M7.11621303,5.76315789 C6.81793771,5.40521906 6.61913798,4.945101 6.66880006,4.48498293 L6.76827563,1.72365149 L6.76827563,1.67256188 L6.42033824,1.26353343 C6.37052475,1.21244381 6.32086266,1.21244381 6.32086266,1.21244381 L4.82978892,2.69528876 L5.8736011,4.17813371 C6.27120058,4.74058677 6.2215385,5.55879943 5.77427694,6.12109673 C5.27720189,6.63246017 4.48200294,6.7346394 3.93511439,6.32561095 L2.44419206,5.30303983 L1.10195316,6.88821977 C1.10195316,6.93930939 1.10195316,6.990399 1.15176665,6.990399 L1.59917962,7.29724822 L1.6488417,7.29724822 L4.33271387,7.04148862 C4.78012684,6.990399 5.27720189,7.14382361 5.62498787,7.45051707 L8.80608651,10.1093578 C9.00488624,10.2629381 9.20368598,10.3651174 9.45229921,10.4672966 L10.5456221,10.7741458 C10.5954356,10.7741458 10.6450976,10.7741458 10.6949111,10.7230562 C10.7445732,10.6719666 10.7445732,10.620877 10.7445732,10.5696316 L10.3966358,9.49581508 C10.2971602,9.24021124 10.1978361,9.03569701 9.99903634,8.83118279 L7.11621303,5.76315789 Z M3.48785284,2.54186415 C3.33871518,2.59295377 3.09025336,2.84871337 2.89145362,3.10447297 L2.69250247,3.30883144 C2.44419206,3.56459104 2.19557883,3.82019488 2.19557883,3.92252987 L4.43218944,5.40521906 C4.53166502,5.45646444 4.5813271,5.50755405 4.68065127,5.50755405 C4.82978892,5.50755405 4.92926449,5.45646444 5.02858866,5.35412945 C5.17772632,5.2008606 5.17772632,4.945101 5.07840215,4.74058677 L3.48785284,2.54186415 Z M10.5954356,8.1665505 C10.8438974,8.47308819 11.0428485,8.77993741 11.1918348,9.13787624 L11.5894343,10.2118485 C11.7385719,10.620877 11.6392477,11.080995 11.3409724,11.3876885 C11.0428485,11.6945377 10.5954356,11.8478065 10.1978361,11.6945377 L9.10436182,11.3876885 C8.75642442,11.2855092 8.40848703,11.080995 8.11021172,10.8252354 L4.92926449,8.1665505 C4.78012684,8.01297013 4.5813271,7.96188051 4.38237595,8.01297013 L1.69850378,8.26872973 C1.45004196,8.31981935 1.15176665,8.21764011 0.95296691,8.06405974 L0.505705351,7.75736629 C0.0086303009,7.39942745 -0.0908452727,6.7346394 0.207430039,6.22343172 L1.54936613,4.63825178 C1.3009043,4.38264794 1.15176665,4.0247091 1.20158014,3.66677027 C1.3009043,3.25774182 1.59917962,2.89980299 1.9469656,2.54186415 L2.14591675,2.33734993 C2.49385414,1.92832148 2.84179154,1.62147226 3.23939101,1.46820341 C3.33871518,1.46820341 3.38837726,1.4171138 3.48785284,1.4171138 C3.73631466,1.4171138 3.98477648,1.51929303 4.18372762,1.72380725 L5.62498787,0.29205192 L5.67464996,0.240962304 C5.8736011,0.0875376956 6.12221433,0.0362923186 6.32086266,0.0362923186 C6.61913798,0.0362923186 6.96707537,0.189872688 7.16587511,0.445476529 L7.5138125,0.854504979 C7.66279875,1.05917496 7.76242573,1.31462304 7.76242573,1.62147226 L7.61313667,4.48498293 C7.61313667,4.68934139 7.66279875,4.89401138 7.81208781,5.04728023 L10.5954356,8.1665505 Z" id="path66"></path>
                </g>
                <g id="g12" transform="translate(0.000000, 13.810811)">
                    <polygon id="path14" points="6.90540541 9.86486486 6.90540541 8.8845237 3.99209159 8.8845237 3.99209159 0.102529907 3.0036979 0.102529907 3.0036979 8.8845237 0.0902306306 8.8845237 0.0902306306 9.86486486"></polygon>
                </g>
            </g>
        </g>
    </g>
</svg>